<svg xmlns="http://www.w3.org/2000/svg" version="1.1" width="600px" height="600px" viewBox="0 0 200 200" style="overflow:hidden!important;"><g id="svga-group-wrapper"><g id="svga-group-backs-single"><path id="SvgjsPath4735" d="M0 0h200v200H0V0z" fill="#ecf0f1" stroke-width="none" opacity="1"></path></g><g id="svga-group-humanwrap-move" transform="matrix(1,0,0,1,0,0)"><g id="svga-group-humanwrap"><g id="svga-group-hair-back-move" transform="matrix(1,0,0,1,0,0)"><g id="svga-group-hair-back"><path id="SvgjsPath5805" d="m59 111.1 1.9 33.8-7.8 27.9-11.3 16.3 115.8-.3-14.4-23.8-4.7-25.7L141 108l-68.2-2.8z" fill="#635864" stroke-width="none" opacity="1" stroke="none"></path><path id="SvgjsPath5806" d="m60.1 114.7 3 17.2 1.8 17.1-1.1 17.8-2.5 13.2 6.4-15.5 1.3-27.4 3 22.8.7 19.2 2.5-19.9.7-15.7 1.8 16 .9 14.6 4.1-8.7 6.9-25.1 24.2-1.6 3.6 27.6 10.5 13.3-7.3-19.7-.4-14.1 4.1 13.7 9.3 20.1-3.6-13.3-1.6-9.1.7-17.6 3.6 17.4 5.7 16.2 7.3 12.1-6.6-17.4-3.6-30.3 2.2-19.4-56.1-3.7z" fill="#5b4d5c" stroke-width="none" opacity="1" stroke="none"></path></g></g><g id="svga-group-humanbody-back"><path id="SvgjsPath4802" d="m168.2 200-4.6-14.2-34.9-13.4-10.8-9.7-1.4-50.5h-33l-1.4 50.5-10.8 9.7-34.9 13.4-4.6 14.2-3 20h142.4z" fill="#f3d4cf" stroke-width="none" opacity="1"></path><path id="SvgjsPath4803" d="m83.5 112.2-1.4 50.5-10.8 9.7-34.9 13.4-4.6 14.2-3 20H39v-20l1.7-13.3 32.1-12.9 14.1-9.5 2-52.1z" fill="#d4958a" stroke-width="none" opacity="1"></path></g><g id="svga-group-chinshadow-single"><path id="SvgjsPath4798" d="m117.5 151.4-1.1-39.3H83.5l-1.2 44.3c3.4 1.7 11 5.4 14.9 5.4 5.2 0 16.6-6.3 16.6-6.3 1.3-1.2 2.5-2.6 3.7-4.1z" fill="#c5796d" stroke-width="none" opacity="1"></path></g><g id="svga-group-humanbody-front"></g><g id="svga-group-clothes-single"><path id="SvgjsPath4933" d="m172.7 220-3.8-19.9-4.5-15-35.7-12.7-8.9 11.4-14 5.6H94.2l-14-5.6-8.9-11.4-35.7 12.7-4.5 15-3.8 19.9z" fill="#09aac5" stroke-width="none" opacity="1"></path><path id="SvgjsPath4934" d="m93.1 193.4-15.9-6.2-7.5-10 6.7 10.8 16.4 6.5 13.7-.1 15.5-7-15.6 6.1H93.1zm-48 .6-5.6-4.6.3-1.1L72.5 174l-1.2-1.5-35.7 12.7-4.5 15-3.8 19.8h8.6l.7-18.3 2.9-12.1 5.3 5.5 9.3 17 1.4 7.9h2.1l-2.6-8.4-9.9-17.6zm110.7.6-9.8 17.7-2.4 7.7h2l1.3-7.2 9.3-17.1 7.2-7.4-7.6 6.3z" fill="#009cb6" stroke-width="none" opacity="1"></path></g><g id="svga-group-head" transform="matrix(1,0,0,1,0,0)"><g id="svga-group-ears-left-move" transform="matrix(1,0,0,1,0,0)"><g id="svga-group-ears-left"><path id="SvgjsPath4752" d="M64.1 91.8s-6-.7-10.6-3.7c0 0-3.5 9.4-4 14.4 0 0 6.7 13 10 18.5 0 0 5.2-.7 6.3-1.4l1.4-8.4-3.1-19.4z" fill="#f3d4cf" stroke-width="none" opacity="1"></path><path id="SvgjsPath4753" d="M54.3 90c-.2-.4-.8-1.9-.8-1.9 5.2.4 10.7 1.4 10.7 1.4l3 21.7-1.4 8.4c-1.1.7-6.3 1.4-6.3 1.4-.6-1-1.3-2.4-2.1-3.7l2.6 1 3-1.6s.7-11.2.5-11.5c-.1-.3-9-14.8-9.2-15.2z" fill="#e4b3ab" stroke-width="none" opacity="1"></path><path id="SvgjsPath4754" d="m51.3 100.9 2.8-5.5 5.2 6.8 2.2 9.5-1.4 1.9-4.3-7.6 1-4.7-2.6-4z" fill="#d4958a" stroke-width="none" opacity="1"></path></g></g><g id="svga-group-ears-right-move" transform="matrix(1,0,0,1,0,0)"><g id="svga-group-ears-right"><path id="SvgjsPath4755" d="M135.9 91.8s6-.7 10.6-3.7c0 0 3.5 9.4 4 14.4 0 0-6.7 13-10 18.5 0 0-5.2-.7-6.3-1.4l-1.4-8.4 3.1-19.4z" fill="#f3d4cf" stroke-width="none" opacity="1"></path><path id="SvgjsPath4756" d="M145.7 90c.2-.4.8-1.9.8-1.9-5.2.4-10.7 1.4-10.7 1.4l-3 21.73 1.4 8.37c1.1.7 6.3 1.4 6.3 1.4.6-1 1.3-2.4 2.1-3.7l-2.6 1-3-1.6s-.7-11.2-.5-11.5c.1-.3 9-14.8 9.2-15.2z" fill="#e4b3ab" stroke-width="none" opacity="1"></path><path id="SvgjsPath4757" d="m148.7 100.9-2.8-5.5-5.2 6.8-2.2 9.5 1.4 1.9 4.3-7.6-1-4.7 2.6-4z" fill="#d4958a" stroke-width="none" opacity="1"></path></g></g><g id="svga-group-faceshape-wrap"><g id="svga-group-faceshape-single"><path id="SvgjsPath4784" d="M136.8 61c-6.7-11.2-19-18.9-19-18.9-7-1.5-17.8-2.2-17.8-2.2s-10.8.8-17.8 2.2c0 0-12.4 7.6-19 18.9 0 0-5 14-5.2 23.9 0 0 2.6 23.7 5.8 34 0 0 9.9 19.8 19.6 29.7 0 0 11.5 6.3 16.6 6.3s16.6-6.3 16.6-6.3c9.7-9.9 19.6-29.7 19.6-29.7 3.1-10.3 5.8-34 5.8-34-.3-9.8-5.2-23.9-5.2-23.9z" fill="#f3d4cf" stroke-width="none" opacity="1"></path><path id="SvgjsPath4785" d="m85.8 45.6 28.8-.8L136.8 61c-6.7-11.2-19-18.9-19-18.9-7-1.5-17.8-2.2-17.8-2.2s-10.8.8-17.8 2.2c0 0-12.4 7.6-19 18.9 0 0-5 14-5.2 23.9 0 0 2.6 23.7 5.8 34 0 0 9.9 19.8 19.6 29.7 0 0 11.5 6.3 16.6 6.3-4.1-.5-15.3-8.6-15.3-8.6-3.3-4.7-15.2-28-15.2-28-2.5-6.4-6.6-34.9-6.6-34.9.3-3.3 4.4-20.5 4.4-21.3s18.5-16.5 18.5-16.5z" fill="#d4958a" stroke-width="none" opacity="1"></path></g></g><g id="svga-group-mouth-single-move" transform="matrix(1,0,0,1,0,0)"><g id="svga-group-mouth-single"><path id="SvgjsPath4740" d="m89.05 131.51 3.93 5.83 7.86 1.79 8.03-1.68 4.22-5.48-10-3.06L92.58 130z" fill="#da7c87" stroke-width="none" opacity="1" transform="translate(0 3)"></path><path id="SvgjsPath4741" d="m86.52 132.54 9.16-6.15 4.58 1.82s4.34-1.76 4.52-1.76c.18 0 9.95 6.33 9.95 6.33l-10.32-1.38-4.03 2.13-4.15-2.38-9.71 1.39z" fill="#cb5f6c" stroke-width="none" opacity="1" transform="translate(0 3)"></path><path id="SvgjsPath4742" d="m101.09 138.07 7.01-1.33 2.78-3.37-3.24 2.78z" fill="#f9bfc6" stroke-width="none" opacity="1" transform="translate(0 3)"></path></g></g><g id="svga-group-eyes-left-move" transform="matrix(1,0,0,1,0,0)"><g id="svga-group-eyes-left"><g id="svga-group-eyesback-left"><path id="SvgjsPath4858" d="m91.1 104.4-2.5-6.8-10.9-3.1-7.2 2.1 5.5 8.1z" fill="#ffffff" stroke-width="none" opacity="1"></path></g><g id="svga-group-eyesiriswrapper-left" transform="matrix(1,0,0,1,0,0)"><g id="svga-group-eyesiriscontrol-left" transform="matrix(1,0,0,1,0,0)"><g id="svga-group-eyesiris-left"><path id="SvgjsPath4818" d="m82.59 104.53-4.96-1.82-.91-5.21 4.06-3.39 4.96 1.82.91 5.21z" fill="#4e60a3" stroke-width="none" opacity="1"></path><path id="SvgjsPath4819" d="m78.98 100.2.59-2.78 2.71-.88 2.11 1.9-.59 2.78-2.71.88z" fill="#000000" stroke-width="none" opacity="1"></path><path id="SvgjsPath4820" d="m78.88 96.88 1.96 1.88.55-.39-1.1-2.43z" fill="#ffffff" stroke-width="none" opacity="1"></path><path id="SvgjsPath4821" d="m82.49 101.12.47.86.78-.31-.39-.95z" fill="#ffffff" stroke-width="none" opacity="1"></path></g></g></g><g id="svga-group-eyesfront-left"><path id="SvgjsPath4866" d="M68 94.5v11.1l7.7 7.9h10.9l7.7-7.9V94.5l-7.7-7.9H75.7L68 94.5zm2.5 2.1 7.1-2.1 11 3.1 2.5 6.8-15.1.3-5.5-8.1z" fill="#f3d4cf" stroke-width="none" opacity="1"></path><path id="SvgjsPath4867" d="m71.4 96.9 4.9 7.7 7.2-.1-7.5.4-5.9-7.9z" fill="#d4958a" stroke-width="none" opacity="1"></path><path id="SvgjsPath4868" d="m91.9 105.9-2.5-9-11-4.6L65 94.7l4.1 2.6h2.5l7-2.5 9.9 2.9 2.2 6.6z" fill="#000000" stroke-width="none" opacity="1"></path></g></g></g><g id="svga-group-eyes-right-move" transform="matrix(1,0,0,1,0,0)"><g id="svga-group-eyes-right"><g id="svga-group-eyesback-right"><path id="SvgjsPath4859" d="m108.9 104.4 2.5-6.8 10.9-3.1 7.2 2.1-5.5 8.1z" fill="#ffffff" stroke-width="none" opacity="1"></path></g><g id="svga-group-eyesiriswrapper-right" transform="matrix(1,0,0,1,0,0)"><g id="svga-group-eyesiriscontrol-right" transform="matrix(1,0,0,1,0,0)"><g id="svga-group-eyesiris-right"><path id="SvgjsPath4822" d="m119.22 104.53-4.96-1.82-.91-5.21 4.06-3.39 4.96 1.82.91 5.21z" fill="#4e60a3" stroke-width="none" opacity="1"></path><path id="SvgjsPath4823" d="m115.61 100.2.59-2.78 2.71-.88 2.11 1.9-.59 2.78-2.71.88z" fill="#000000" stroke-width="none" opacity="1"></path><path id="SvgjsPath4824" d="m115.51 96.88 1.96 1.88.55-.39-1.1-2.43z" fill="#ffffff" stroke-width="none" opacity="1"></path><path id="SvgjsPath4825" d="m119.12 101.12.47.86.78-.31-.39-.95z" fill="#ffffff" stroke-width="none" opacity="1"></path></g></g></g><g id="svga-group-eyesfront-right"><path id="SvgjsPath4869" d="M124.3 86.6h-10.9l-7.7 7.9v11.1l7.7 7.9h10.9l7.7-7.9V94.5l-7.7-7.9zm-.3 18.1-15.1-.3 2.5-6.8 11-3.1 7.1 2.1-5.5 8.1z" fill="#f3d4cf" stroke-width="none" opacity="1"></path><path id="SvgjsPath4872" d="m128.6 96.9-4.9 7.7-7.2-.1 7.5.4 5.9-7.9z" fill="#d4958a" stroke-width="none" opacity="1"></path><path id="SvgjsPath4873" d="m108.1 105.9 2.5-9 11-4.6 13.4 2.4-4.1 2.6h-2.5l-7-2.5-9.9 2.9-2.2 6.6z" fill="#000000" stroke-width="none" opacity="1"></path></g></g></g><g id="svga-group-facehighlight-single"></g><g id="svga-group-eyebrows-left-move" transform="matrix(1,0,0,1,0,0)"><g id="svga-group-eyebrows-left-rotate" transform="matrix(1,1.7453292519943295e-9,-1.7453292519943295e-9,1,1.5158184396568686e-7,-1.3953906830010965e-7)"><g id="svga-group-eyebrows-left"><path id="SvgjsPath4911" d="m92.2 87.2-1.7 3.5-14.6-4.1-8.2 2 5.9-5 3-.6z" fill="#2a232b" stroke-width="none" opacity="1"></path><path id="SvgjsPath4912" d="m85.7 85.5 1.4.4.5 2.6-1.9-3zM76.6 83l3 3.6-4.3-3.4 1.3-.2zm6.4 1.7 1 3.1-2.6-3.5 1.6.4zm-12 1.1h1.9l-2.6.6.7-.6zm13.9-.6.2 1.1-1.2-1.3 1 .2zm-11.3-1.6 2.6 1.4-3.2-.8.6-.6zm15.7 2.8.5 3.1-2.3-3.5 1.8.4z" fill="#3a353a" stroke-width="none" opacity="1"></path></g></g></g><g id="svga-group-eyebrows-right-move" transform="matrix(1,0,0,1,0,0)"><g id="svga-group-eyebrows-right-rotate" transform="matrix(1,1.7453292519943295e-9,-1.7453292519943295e-9,1,1.5158184396568686e-7,-2.0952678880803433e-7)"><g id="svga-group-eyebrows-right"><path id="SvgjsPath4913" d="m107.8 87.2 1.7 3.5 14.6-4.1 8.2 2-5.9-5-3-.6z" fill="#2a232b" stroke-width="none" opacity="1"></path><path id="SvgjsPath4914" d="m114.3 85.5-1.4.4-.5 2.6 1.9-3zm9.1-2.5-3 3.6 4.3-3.4-1.3-.2zm-6.4 1.7-1 3.1 2.6-3.5-1.6.4zm12 1.1h-1.9l2.6.6-.7-.6zm-13.9-.6-.2 1.1 1.1-1.4-.9.3zm11.3-1.6-2.6 1.4 3.2-.8-.6-.6zm-15.7 2.8-.5 3.1 2.3-3.5-1.8.4z" fill="#3a353a" stroke-width="none" opacity="1"></path></g></g></g><g id="svga-group-nose-single-move" transform="matrix(1,0,0,1,0,0)"><g id="svga-group-nose-single"><path id="SvgjsPath4900" d="m104.26 110.12-1.71-13.72.96 12.74-.75-.19 5.77 8.81-2.05 1.51-1.13-1.32.25-1.17-4.51 3.91h-2.1l-4.51-3.91.25 1.17-1.13 1.32-2.04-1.51 5.76-8.81-.75.19 1.17-19.97-1.92 20.95-5.1 7.73 3.34 2.45 1.26-1.76 3.67 3.42h2.1l3.68-3.42 1.25 1.76 3.34-2.45z" fill="#d4958a" stroke-width="none" opacity="1" transform="translate(0 2)"></path><path id="SvgjsPath4901" d="m96.64 116.02 2.07 1.27 2.71.06 2.24-1.02-.27-1.54-3.14-.53-3.45.59z" fill="#fbe5e2" stroke-width="none" opacity="1" transform="translate(0 2)"></path></g></g><g id="svga-group-hair-front"><path id="SvgjsPath5803" d="m61 98.6-3.7-10.1.2-15.8L63.8 57l14.7-14.5 20.6-4.3 19.7 3 14.7 11.5 6.7 10.8 3.4 16.9.6 8.3-3.6 10.1-5.5-21.6L122.5 61l-23.4-6.1-21 6.9-11.5 16.3z" fill="#635864" stroke-width="none" opacity="1" stroke="none"></path><path id="SvgjsPath5804" d="m118.8 41.2-3.8-.6-.6-.1-15.3-2.4-1.4.3-.3.1L80.7 42h-.1l-2 .4L63.8 57l-6.3 15.6-.2 15.8L61 98.6l5.7-20.5 11.5-16.3.2-.1-.8-4.2v-11l4-1.2 2.7 9.5 2.1 4.2.6-.2-2.7-11.5-1.6-2.3L97 40.8l-1.3 7.1.7 7.8 1.1-.4.9-7.2-.3-7.7h.1l11.5.5-2.1 6.4-1.4 9.3h.2l2.1-6.6 1.5-9 4.2.2-2.9 7.5-1.8 8.8.8.2 3.8-7.1 1-9.4 4.2.2-.5-.2zm21.4 22.4-5.7 2-6.3 2.7.3.3 6.3-1.7 5.6-2.8-.2-.5zm-2.8-4.6-.4-.6-5.7 2.7-5.8 3.8.3.4 5.5-2.1 6.1-4.2zm-16.2-6.8-2 7.9.9.2 3-4.9 2.4-9.1-.7-.5-3.6 6.4z" fill="#6b646c" stroke-width="none" opacity="1" stroke="none"></path></g><g id="svga-group-glasses-single-move" transform="matrix(1,0,0,1,0,0)"><g id="svga-group-glasses-single"></g></g></g></g></g><rect id="svga-credit-rect" width="200" height="15" x="0" y="185" fill="#ecf0f1" opacity="0.5" style="display: none;"></rect><text id="svga-credit-text" font-family="Avenir Next, Roboto, Helvetica, Arial, sans-serif" font-size="10px" text-anchor="start" font-weight="400" size="10px" anchor="start" weight="400" fill="#333333" x="33.40447998046875" y="182.60824704170227" style="display: none;"><tspan id="SvgjsTspan4734" dy="13" x="33.40447998046875">Created on AvatarMaker.com</tspan></text></g><defs id="SvgjsDefs4686"></defs></svg>