<svg xmlns="http://www.w3.org/2000/svg" version="1.1" width="600px" height="600px" viewBox="0 0 200 200" style="overflow:hidden!important;"><defs id="SvgjsDefs8918"></defs><g id="svga-group-wrapper"><g id="svga-group-backs-single"><path id="SvgjsPath9389" d="M0 0h200v200H0V0z" fill="#00a8c6" stroke-width="none" opacity="1"></path><path id="SvgjsPath9390" d="M6.5 16.3c4-9.2 13.8-13.8 22-11.3 6 1.9 10.6 7.5 11.8 14.3 0 0 25.4-15.2 41.7 1.1 6.1 6.1 6.7 17.8-4.9 27.2-8.8 7.2-19.5 1.4-19.5 1.4 2 5.6.6 11.5-3 14.3-5 3.8-14.5 2.2-18.9-5.8 0 0 2.5 13.2-12.6 15.4C7.9 75.1 8.7 60 8.7 60s-.9 4.4-8.7 4.4V13s1.4-.3 3.2.5 3.3 2.8 3.3 2.8zm136.2 47.3c-.2-.7-4.6-9.9-15.2-9-10.6.9-7.6 14.8-7.6 14.8s-14.3.5-15.5 11.8S116.4 103 134 92c0 0 13.9 14.1 28.9-.9 0 0 21 12.7 28.4.2S182.9 73 182.9 73s6.5-15.7-12-12c0 0-3-9-13.2-8.5-10.1.4-15 11.1-15 11.1zM81.6 149s-5.5 6.7-16.8 5.1c-11.3-1.6-12.2-10.9-12.2-10.9s-14.3 12.5-31.6 3-7.9-26.3-.7-30.7 20.3-.5 20.3-.5-1.6-4.8 4.6-8.5c6.2-3.7 11.3 1.8 11.3 1.8s1.2-8.3 14.1-8.1S83 112.5 83 112.5s5.1-9.2 16.4-3.7 7.6 14.3 7.6 14.3 3-3.7 6.5-4.2 7.6 3 7.2 6.9c0 0 8.8-8.1 20.3 5.5s-11.3 28.2-21.9 15.9c0 0-3.5 10.6-20.1 9.5S81.6 149 81.6 149zm72.7 19.1s-2.8-6.2-10.9-6-7.9 9.7-7.9 9.7-6-5.8-12-1.4 0 11.3 0 11.3-5.8.5-5.3 6.2 12.9 12.9 26.8-.2c0 0 4.2 6.7 11.3 4.9 7.2-1.9 6.9-8.5 6.9-8.5s9.7 8.5 19.2 2.5 6.7-23.6-8.8-24.5c-15.4-.9-19.3 6-19.3 6zM126.5 0s-7.4 3.7-5.5 12.9 16.1 8.3 19.6 3.5c0 0-2.8 9.7 7.4 10.1 0 0-.2 16.8 18.4 11s16.3-22.3 16.3-22.3 2.5 12.9 17.4 12.9V0h-73.6zM0 195.2s19.3 7.9 29.6-9.4-11.8-20.6-15.4-15.7c0 0 1.6-16.7-14.2-13.2v38.3z" fill="#ffffff" stroke-width="none" opacity="1"></path></g><g id="svga-group-humanwrap-move" transform="matrix(1,0,0,1,0,0)"><g id="svga-group-humanwrap" transform="matrix(1,0,0,1,0,0)"><g id="svga-group-hair-back-move" transform="matrix(1,0,0,1,0,0)"><g id="svga-group-hair-back" transform="matrix(1,0,0,1,0,0)"><path id="SvgjsPath9603" d="m85.2 45-21 15.4-8 74.7 4.8 29.8 16.2 3.7 49.5.5.5-17.6 1.3 17.3 12-3.2 5.3-4-2.9-76.6-4.2-18.9s-14.6-21-15.4-20.7-38.1-.4-38.1-.4z" fill="#483b39" stroke-width="none" opacity="1" stroke="none"></path></g></g><g id="svga-group-humanbody-back"><path id="SvgjsPath9222" d="m168.2 200-4.6-14.2-34.9-13.4-10.8-9.7-1.4-50.5h-33l-1.4 50.5-10.8 9.7-34.9 13.4-4.6 14.2-3 20h142.4z" fill="#f4baa3" stroke-width="none" opacity="1" stroke="none"></path><path id="SvgjsPath9223" d="m83.5 112.2-1.4 50.5-10.8 9.7-34.9 13.4-4.6 14.2-3 20H39v-20l1.7-13.3 32.1-12.9 14.1-9.5 2-52.1z" fill="#d58464" stroke-width="none" opacity="1" stroke="none"></path></g><g id="svga-group-chinshadow-single"><path id="SvgjsPath9451" d="m117.6 154.8-1.1-42.6h-33l-1.2 44.9 2.7 1.2h24.5z" fill="#c66c49" stroke-width="none" opacity="1" stroke="none"></path></g><g id="svga-group-humanbody-front"></g><g id="svga-group-clothes-single"><path id="SvgjsPath9580" d="m168.9 200-4.8-14.6-35-13.5-10.8-9.6-.5-14.9-.5-1.1-5.3 2.7-12.1 1.7-12-1.7-5.3-2.7-.5 1.1-.5 14.9-10.8 9.6-35 13.5L31 200l-3 20h144l-3.1-20zm-64.6 3.2h-8.8l-7.9-8.7L93 167l6.9 1.1 6.9-1.1 5.4 27.5-7.9 8.7z" fill="#591956" stroke-width="none" opacity="1"></path><path id="SvgjsPath9581" d="m168.9 200-4.8-14.6-35-13.5-10.8-9.5-.5-14.9-.1-.3-3.8 3.1.4 14.6 12 11.8 34.5 11 4.8 13 3.5 19.3h2.9z" fill="#682865" stroke-width="none" opacity="1"></path><path id="SvgjsPath9582" d="m151.9 195.9-3.8 13.4-.5 10.7h1.5v-10.1l3.5-13.1 6.6-9.1-7.3 8.2zm-52-28.4-8.2-1.4-5.2 28.8 8.6 9.4h9.6l8.6-9.4-5.2-28.8-8.2 1.4zm4.4 35.7h-8.8l-7.9-8.7L93 167l6.9 1.1 6.9-1.1 5.4 27.5-7.9 8.7zM112 149l-12.1 1.7-12-1.7-5.3-2.7-.4.9-.1.2-.5 14.9-10.8 9.6-35 13.5L31 200l-3 20h8l1.7-20 4.8-10.1 5 6.9 3.5 13.1V220h1.5l-.5-10.7-4-13.4-5.5-6.2.1-.3 29.5-11.2 15.6-12.1.1-15.6c1.8 1 3.1 1.8 3.1 1.8l18.5-.2 7.9-5.3-.1-.3-5.2 2.5z" fill="#4a0d47" stroke-width="none" opacity="1"></path></g><g id="svga-group-head" transform="matrix(1,0,0,1,0,0)"><g id="svga-group-ears-left-move" transform="matrix(1,0,0,1,0,0)"><g id="svga-group-ears-left" transform="matrix(1,0,0,1,0,0)"><path id="SvgjsPath9409" d="M64.1 91.8s-6-.7-10.6-3.7c0 0-3.5 9.4-4 14.4 0 0 6.7 13 10 18.5 0 0 5.2-.7 6.3-1.4l1.4-8.4-3.1-19.4z" fill="#f4baa3" stroke-width="none" opacity="1" stroke="none"></path><path id="SvgjsPath9410" d="M54.3 90c-.2-.4-.8-1.9-.8-1.9 5.2.4 10.7 1.4 10.7 1.4l3 21.7-1.4 8.4c-1.1.7-6.3 1.4-6.3 1.4-.6-1-1.3-2.4-2.1-3.7l2.6 1 3-1.6s.7-11.2.5-11.5c-.1-.3-9-14.8-9.2-15.2z" fill="#e59e82" stroke-width="none" opacity="1" stroke="none"></path><path id="SvgjsPath9411" d="m51.3 100.9 2.8-5.5 5.2 6.8 2.2 9.5-1.4 1.9-4.3-7.6 1-4.7-2.6-4z" fill="#d58464" stroke-width="none" opacity="1" stroke="none"></path></g></g><g id="svga-group-ears-right-move" transform="matrix(1,0,0,1,0,0)"><g id="svga-group-ears-right" transform="matrix(1,0,0,1,0,0)"><path id="SvgjsPath9412" d="M135.9 91.8s6-.7 10.6-3.7c0 0 3.5 9.4 4 14.4 0 0-6.7 13-10 18.5 0 0-5.2-.7-6.3-1.4l-1.4-8.4 3.1-19.4z" fill="#f4baa3" stroke-width="none" opacity="1" stroke="none"></path><path id="SvgjsPath9413" d="M145.7 90c.2-.4.8-1.9.8-1.9-5.2.4-10.7 1.4-10.7 1.4l-3 21.73 1.4 8.37c1.1.7 6.3 1.4 6.3 1.4.6-1 1.3-2.4 2.1-3.7l-2.6 1-3-1.6s-.7-11.2-.5-11.5c.1-.3 9-14.8 9.2-15.2z" fill="#e59e82" stroke-width="none" opacity="1" stroke="none"></path><path id="SvgjsPath9414" d="m148.7 100.9-2.8-5.5-5.2 6.8-2.2 9.5 1.4 1.9 4.3-7.6-1-4.7 2.6-4z" fill="#d58464" stroke-width="none" opacity="1" stroke="none"></path></g></g><g id="svga-group-faceshape-wrap" transform="matrix(1,0,0,1,0,0)"><g id="svga-group-faceshape-single"><path id="SvgjsPath9441" d="M136.8 61c-6.7-11.2-19-18.9-19-18.9-7-1.5-17.8-2.2-17.8-2.2s-10.8.8-17.8 2.2c0 0-12.4 7.6-19 18.9 0 0-5 14-5.2 23.9l3 29.1 12.4 31.1 14.4 6.2h24.4l14.4-6.2L139 114l3-29.1c-.3-9.8-5.2-23.9-5.2-23.9z" fill="#f4baa3" stroke-width="none" opacity="1" stroke="none"></path><path id="SvgjsPath9442" d="M111.8 149H87.4l-11.9-5.8-10.1-30.5-3.7-28.9 4.8-21.5 16.4-18 17.2-2.9 17.7.7c-7-1.5-17.8-2.2-17.8-2.2s-10.8.8-17.8 2.2c0 0-12.4 7.6-19 18.9 0 0-5 14-5.2 23.9l3 29.1 12.4 31.1 14.4 6.2h24.4l14.4-6.2.56-1.4-15.36 5.3z" fill="#d58464" stroke-width="none" opacity="1" stroke="none"></path></g></g><g id="svga-group-mouth-single-move" transform="matrix(1,0,0,1,0,0)"><g id="svga-group-mouth-single" transform="matrix(1,0,0,1,0,0)"><path id="SvgjsPath9399" d="m86.12 128.47 10.5-2.08 3.9 2.03 3.33-2.19 11.79 2.28-8.05 7.56-6.99 1.62-6.5-1.54z" fill="#A06B59" stroke-width="none" opacity="1" transform="translate(0 3)" stroke="none"></path><path id="SvgjsPath9400" d="m84.99 128.26 15.53 3.17 16.59-3.17-16.75 2.36z" fill="#915642" stroke-width="none" opacity="1" transform="translate(0 3)" stroke="none"></path></g></g><g id="svga-group-eyes-left-move" transform="matrix(1,0,0,1,0,0)"><g id="svga-group-eyes-left" transform="matrix(1,0,0,1,0,0)"><g id="svga-group-eyesback-left"><path id="SvgjsPath9503" d="M90.3 103.8s-.4-5.3-1.7-6.9c-.2-.2-13.7.2-16.8.3l1.1 6.1 1.8 1.4s14.6-.5 15.6-.9z" fill="#ffffff" stroke-width="none" opacity="1"></path></g><g id="svga-group-eyesiriswrapper-left" transform="matrix(1,0,0,1,0,0)"><g id="svga-group-eyesiriscontrol-left" transform="matrix(1,0,0,1,0,0)"><g id="svga-group-eyesiris-left" transform="matrix(1,0,0,1,0,0)"><path id="SvgjsPath9455" d="M77.2 101.9v-5l4.4-2.5 4.3 2.5v5l-4.3 2.6z" fill="#66724e" stroke-width="none" opacity="1"></path><path id="SvgjsPath9456" d="m79.3 103.2 2.3 1.3 4.3-2.6v-3.7L83.7 97l-4.4 2.5z" fill="#788165" stroke-width="none" opacity="1"></path><path id="SvgjsPath9457" d="m81.6 94.6 4.1 2.4v4.8l-4.1 2.4-4.1-2.4V97l4.1-2.4m0-.5L77 96.8v5.3l4.6 2.7 4.6-2.7v-5.3l-4.6-2.7z" fill="#66724e" stroke-width="none" opacity="1"></path><path id="SvgjsPath9458" d="M82.7 97.4h-2.3l-1.2 2 1.2 2h2.3l1.2-2z" fill="#000000" stroke-width="none" opacity="1"></path><path id="SvgjsPath9459" d="M79.8 96.8h1.8v1.8h-1.8v-1.8z" fill="#ffffff" stroke-width="none" opacity="1"></path><path id="SvgjsPath9460" d="M82 100.8h1v1h-1v-1z" fill="#ffffff" stroke-width="none" opacity="1"></path></g></g></g><g id="svga-group-eyesfront-left"><path id="SvgjsPath9511" d="M67.97 94.46v11.11l7.69 7.86h10.87l7.69-7.86V94.46l-7.69-7.86H75.66l-7.69 7.86zm3.86 2.65c3.04-.11 16.59-.48 16.75-.27 1.26 1.68 1.71 6.94 1.71 6.94-.96.43-15.58.91-15.58.91l-1.76-1.44-1.12-6.14z" fill="#f4baa3" stroke-width="none" opacity="1" stroke="none"></path><path id="SvgjsPath9512" d="M89.52 97.01s1.79 7.08 1.68 7.85-2.76.44-2.76.44l-.88-.99-1.55-.11 4.14-.66s-.39-4.2-1.66-6.52H75.74l16.44-.69-2.66.68z" fill="#e59e82" stroke-width="none" opacity="1" stroke="none"></path><path id="SvgjsPath9513" d="M91.02 95.31h-7.06c-.2 0-11.33.91-11.33.91l11.74-1.52 6.65.61z" fill="#e59e82" stroke-width="none" opacity="1" stroke="none"></path><path id="SvgjsPath9514" d="m70.17 103.67 2.09-1.33-.41-3.57-3.8-1.83 3.6.1 1.61-.05-1.79-1.16 3.2 1.12 1.51-.04-1.55-1.21 2.47 1.18 8.83-.25 3.98.3-10.58.21-6.69 1.61.54 4.13 2.28 1.73 6.66-.15-7.22.76-1.26.65.61-1.16-.65-.51-1.36 1 .89-1.36-.77-.6z" fill="#09112e" stroke-width="none" opacity="1" stroke="none"></path></g></g></g><g id="svga-group-eyes-right-move" transform="matrix(1,0,0,1,0,0)"><g id="svga-group-eyes-right" transform="matrix(1,0,0,1,0,0)"><g id="svga-group-eyesback-right"><path id="SvgjsPath9504" d="M109.7 103.8s.4-5.3 1.7-6.9c.2-.2 13.7.2 16.8.3l-1.1 6.1-1.8 1.4s-14.6-.5-15.6-.9z" fill="#ffffff" stroke-width="none" opacity="1"></path></g><g id="svga-group-eyesiriswrapper-right" transform="matrix(1,0,0,1,0,0)"><g id="svga-group-eyesiriscontrol-right" transform="matrix(1,0,0,1,0,0)"><g id="svga-group-eyesiris-right" transform="matrix(1,0,0,1,0,0)"><path id="SvgjsPath9461" d="M114.1 101.9v-5l4.3-2.5 4.4 2.5v5l-4.4 2.6z" fill="#66724e" stroke-width="none" opacity="1"></path><path id="SvgjsPath9462" d="m116.2 103.2 2.2 1.3 4.4-2.6v-3.7l-2.2-1.2-4.4 2.5z" fill="#788165" stroke-width="none" opacity="1"></path><path id="SvgjsPath9463" d="m118.4 94.6 4.1 2.4v4.8l-4.1 2.4-4.1-2.4V97l4.1-2.4m0-.5-4.6 2.7v5.3l4.6 2.7 4.6-2.7v-5.3l-4.6-2.7z" fill="#455328" stroke-width="none" opacity="1"></path><path id="SvgjsPath9464" d="M119.6 97.4h-2.3l-1.2 2 1.2 2h2.3l1.2-2z" fill="#000000" stroke-width="none" opacity="1"></path><path id="SvgjsPath9465" d="M116.7 96.8h1.8v1.8h-1.8v-1.8z" fill="#ffffff" stroke-width="none" opacity="1"></path><path id="SvgjsPath9466" d="M118.9 100.8h1v1h-1v-1z" fill="#ffffff" stroke-width="none" opacity="1"></path></g></g></g><g id="svga-group-eyesfront-right"><path id="SvgjsPath9515" d="M124.34 86.6h-10.87l-7.69 7.86v11.11l7.69 7.86h10.87l7.69-7.86V94.46l-7.69-7.86zm2.71 16.65-1.76 1.44s-14.62-.48-15.58-.91c0 0 .45-5.25 1.71-6.94.16-.21 13.71.16 16.75.27l-1.12 6.14z" fill="#f4baa3" stroke-width="none" opacity="1" stroke="none"></path><path id="SvgjsPath9518" d="M110.48 97.01s-1.79 7.08-1.68 7.85 2.76.44 2.76.44l.88-.99 1.55-.11-4.14-.66s.39-4.2 1.66-6.52h12.76l-16.44-.69 2.65.68z" fill="#e59e82" stroke-width="none" opacity="1" stroke="none"></path><path id="SvgjsPath9519" d="M108.98 95.31h7.06c.2 0 11.33.91 11.33.91l-11.74-1.52-6.65.61z" fill="#e59e82" stroke-width="none" opacity="1" stroke="none"></path><path id="SvgjsPath9520" d="m129.83 103.67-2.09-1.33.41-3.57 3.8-1.83-3.6.1-1.61-.05 1.79-1.16-3.2 1.12-1.51-.04 1.55-1.21-2.47 1.18-8.83-.25-3.98.3 10.58.21 6.69 1.61-.54 4.13-2.28 1.73-6.66-.15 7.22.76 1.26.65-.61-1.16.65-.51 1.36 1-.89-1.36.77-.6z" fill="#09112e" stroke-width="none" opacity="1" stroke="none"></path></g></g></g><g id="svga-group-facehighlight-single"></g><g id="svga-group-eyebrows-left-move" transform="matrix(1,0,0,1,0,0)"><g id="svga-group-eyebrows-left-rotate" transform="matrix(1,0,0,1,0,0)"><g id="svga-group-eyebrows-left" transform="matrix(1,0,0,1,0,0)"><path id="SvgjsPath9562" d="m88.1 83.5-4.6.2-6.8 1.2-4.5 2.3-4.1 3.9 2.1-1.7 2.6-1.9 6.4-1.6 6.8 1.3 5.6-1.1.5-2.8z" fill="#504543" stroke-width="none" opacity="1"></path><path id="SvgjsPath9563" d="m91.6 86.1.6-2.9-1.5 2.4-4.1 1.1 1.2-1.9-2.1 1.8-6.4-1.1 2-1-3.5.6-4.8 2.3 6.4-1.6 6.8 1.2 5.4-.9zm-21.4 3.3 2.6-1.9-.6-.3-4.1 3.9 2.1-1.7z" fill="#413230" stroke-width="none" opacity="1"></path></g></g></g><g id="svga-group-eyebrows-right-move" transform="matrix(1,0,0,1,0,0)"><g id="svga-group-eyebrows-right-rotate" transform="matrix(1,0,0,1,0,0)"><g id="svga-group-eyebrows-right" transform="matrix(1,0,0,1,0,0)"><path id="SvgjsPath9564" d="m108.2 83.3.5 2.9 5.5 1L121 86l6.4 1.6 2.7 1.9 2 1.6-4.1-3.8-4.5-2.4-6.7-1.1-4.6-.2z" fill="#504543" stroke-width="none" opacity="1"></path><path id="SvgjsPath9565" d="M114.2 87.2 121 86l6.4 1.6-4.8-2.3-3.5-.6 2 1-6.4 1.1-2.1-1.8 1.2 1.9-4.2-1.1-1.5-2.3.6 2.8 5.5.9zm17.9 3.9-4.1-3.8-.6.3 2.6 1.9 2.1 1.6z" fill="#413230" stroke-width="none" opacity="1"></path></g></g></g><g id="svga-group-nose-single-move" transform="matrix(1,0,0,1,0,0)"><g id="svga-group-nose-single" transform="matrix(1,0,0,1,0,0)"><path id="SvgjsPath9553" d="m103.35 108.14-.8-.31 5.16 8.97-1.6 2.28-1.38-.95.22-1.02-1.09.47-1.6 3.15-2.1.08-2.5-.08-1.6-3.15-1.08-.47.21 1.02-1.38.95-1.59-2.28 5.15-8.97.33-10.76-1.13 11.07-5.22 8.81 2.54 3.31 2.17-1.58 1.24 2.76h5.33l1.23-2.76 2.18 1.58 2.54-3.31z" fill="#d58464" stroke-width="none" opacity="1" transform="translate(0 2)"></path><path id="SvgjsPath9554" d="m97.27 117.21 1.3.61 3.06.08 1.53-.69-.58-2.35-.98-3.1-2.03 4.07z" fill="#fcc9b5" stroke-width="none" opacity="1" transform="translate(0 2)"></path></g></g><g id="svga-group-hair-front" transform="matrix(1,0,0,1,0,0)"><path id="SvgjsPath9599" d="m147.9 115.1-3.5-46.3-10.3-19.7-14.1-11-10.3-2.1-9.9 2.8-9.8-2.9L76.7 38 61.2 55.2l-7.6 25.2-1.8 49.7 2.9 30.6 2.1 2.7-2.8-26.1 4.4 26.9 8.5 2.9-4.5-25.2 6.6 25.3 8 1.3-7.1-37.5-3-45.2 10.2-29.5 9.1-3.4 14.9 5.1 13.6-5.3 9 5.4 8.9 27.4.4 41.2-2.6 42.3 3.2-1.6 5.1-15.9-2.7 16.2 5.3-2.6 1.4-22.6 1.3 22 5.1-5z" fill="#504543" stroke-width="none" opacity="1" stroke="none"></path><path id="SvgjsPath9600" d="m81.3 49.2-6.9 6.4L65.6 85l3.2 29-2-28.1 10.1-29.5 9-3.5 14.9 5.1-7.1-4.2-12.4-4.6zm43.8 5.6-12.6-6.4-7 6.1-4.7 3.5 13.6-5.3 9 5.3 9 27.4.3 22.6 1.6-25.8-9.2-27.4zm-25.9-2.5-18.9-7.8L68.2 55l-5.5 31.5 4.4 57.9 3.7 19.1-5.1-20.2-5.3-58.6 6.4-31.3 13.8-10.8 18.6 9.7zm-.6-2.3 9.4-7.6 17.5 5 12.9 20.9 1.8 22.1-.5 46.7-1.2 12v-13.8l-.7-49.2-2.1-18.4-11.5-19.1L108 44l-9.4 6zM54.7 86.1l2.3 46 5.7 26.9-7.3-28.3-.7-44.6zm89.6 6.2 2.1 47.4-.4 18.4 2.1-19.3-3.8-46.5z" fill="#5f5a59" stroke-width="none" opacity="1" stroke="none"></path><path id="SvgjsPath9601" d="m99 53.4 9-8 16.3 4.1 11 19.1 2.5 17.5-3 50.1.7-51.5-2.5-16.1-11-17.9-13.6-3.2-9.4 5.9zm-3.7-.9-14-6.2-11.5 9.2-7.1 31 5.1 43-3.2-43.4L72.2 56l10.3-7.1 12.8 3.6z" fill="#483b39" stroke-width="none" opacity="1" stroke="none"></path><path id="SvgjsPath9602" d="m98.1 44.9-17-5.1-12.2 9.4 12.9-7.6 16.3 3.3zm1.8-.7 10.1-5.5 13.6 4.8-13.8-2.3-9.9 3zm-.9-3.4-8.7-3-4.6.7L99 40.8zM59 71.3l-2.5 11 2.8 48L62 141l-.9-12.4-2.5-47.1.4-10.2zm81.9 9.2 1.6 31.7-.7 25.3 2.3-26.2-3.2-30.8z" fill="#584f4e" stroke-width="none" opacity="1" stroke="none"></path></g><g id="svga-group-glasses-single-move" transform="matrix(1,0,0,1,0,0)"><g id="svga-group-glasses-single" transform="matrix(1,0,0,1,0,0)"></g></g></g></g></g><rect id="svga-credit-rect" width="200" height="15" x="0" y="185" fill="#ecf0f1" opacity="0.5" style="display: none;"></rect><text id="svga-credit-text" font-family="Avenir Next, Roboto, Helvetica, Arial, sans-serif" font-size="10px" text-anchor="start" font-weight="400" size="10px" anchor="start" weight="400" fill="#333333" x="33.40447998046875" y="182.60824704170227" style="display: none;"><tspan id="SvgjsTspan8966" dy="13" x="33.40447998046875">Created on AvatarMaker.com</tspan></text></g></svg>